<svg xmlns="http://www.w3.org/2000/svg" xmlns:xlink="http://www.w3.org/1999/xlink" width="500" zoomAndPan="magnify" viewBox="0 0 375 374.999991" height="500" preserveAspectRatio="xMidYMid meet" version="1.0"><defs><g><g id="id1"/></g><clipPath id="id2"><path d="M 190 186 L 337.5 186 L 337.5 232.71875 L 190 232.71875 Z M 190 186 " clip-rule="nonzero"/></clipPath><clipPath id="id3"><path d="M 37.5 186 L 185 186 L 185 232.71875 L 37.5 232.71875 Z M 37.5 186 " clip-rule="nonzero"/></clipPath><clipPath id="id4"><path d="M 110 64.71875 L 263 64.71875 L 263 161 L 110 161 Z M 110 64.71875 " clip-rule="nonzero"/></clipPath></defs><g clip-path="url(#id2)"><path fill="rgb(1.179504%, 30.589294%, 50.19989%)" d="M 202.644531 216.125 C 253.457031 191.082031 299.558594 186.707031 322.433594 186.316406 C 330.71875 186.175781 337.46875 192.957031 337.308594 201.261719 C 337.152344 209.035156 330.96875 215.347656 323.210938 215.621094 C 256.53125 217.984375 190.886719 232.714844 190.886719 232.714844 C 190.636719 225.136719 190.886719 223.328125 190.886719 223.328125 C 192.03125 220.085938 202.644531 216.125 202.644531 216.125 " fill-opacity="1" fill-rule="nonzero"/></g><path fill="rgb(1.179504%, 30.589294%, 50.19989%)" d="M 197.578125 199.886719 C 227.972656 174.488281 258.566406 163.914062 274.039062 159.871094 C 279.644531 158.40625 285.339844 161.898438 286.59375 167.566406 C 287.769531 172.871094 284.605469 178.179688 279.382812 179.644531 C 234.480469 192.253906 192.316406 213.089844 192.316406 213.089844 C 190.902344 207.988281 190.773438 206.714844 190.773438 206.714844 C 191.019531 204.324219 197.578125 199.886719 197.578125 199.886719 " fill-opacity="1" fill-rule="nonzero"/><g clip-path="url(#id3)"><path fill="rgb(1.179504%, 30.589294%, 50.19989%)" d="M 172.355469 216.125 C 121.542969 191.082031 75.441406 186.707031 52.566406 186.316406 C 44.28125 186.175781 37.53125 192.957031 37.695312 201.261719 C 37.847656 209.035156 44.03125 215.347656 51.785156 215.621094 C 118.46875 217.984375 184.117188 232.714844 184.117188 232.714844 C 184.363281 225.136719 184.117188 223.328125 184.117188 223.328125 C 182.96875 220.085938 172.355469 216.125 172.355469 216.125 " fill-opacity="1" fill-rule="nonzero"/></g><path fill="rgb(1.179504%, 30.589294%, 50.19989%)" d="M 177.421875 199.886719 C 147.027344 174.488281 116.433594 163.914062 100.960938 159.871094 C 95.355469 158.40625 89.660156 161.898438 88.40625 167.566406 C 87.230469 172.871094 90.394531 178.179688 95.617188 179.644531 C 140.519531 192.253906 182.683594 213.089844 182.683594 213.089844 C 184.097656 207.988281 184.226562 206.714844 184.226562 206.714844 C 183.980469 204.324219 177.421875 199.886719 177.421875 199.886719 " fill-opacity="1" fill-rule="nonzero"/><g clip-path="url(#id4)"><path fill="rgb(10.978699%, 43.919373%, 63.529968%)" d="M 260.230469 115.625 L 223.359375 134.574219 L 223.445312 155.84375 L 223.203125 155.875 L 223.199219 156.363281 L 219.816406 156.339844 L 187.640625 160.753906 L 151.773438 156.363281 L 151.769531 155.84375 L 151.527344 155.84375 L 151.617188 134.089844 L 114.953125 114.566406 C 114.871094 114.523438 114.792969 114.476562 114.71875 114.429688 L 114.640625 125.167969 C 115.894531 125.476562 116.789062 126.285156 116.78125 127.222656 L 116.621094 149 C 116.613281 150.195312 115.144531 151.15625 113.34375 151.144531 C 111.539062 151.128906 110.085938 150.148438 110.09375 148.953125 L 110.25 127.175781 C 110.257812 126.238281 111.164062 125.445312 112.421875 125.152344 L 112.523438 111.164062 C 112.234375 109.351562 112.988281 107.390625 114.808594 106.339844 L 133.0625 95.765625 L 150.363281 85.75 L 162.105469 78.949219 L 179.40625 68.929688 L 185.574219 65.359375 C 186.3125 64.929688 187.136719 64.722656 187.957031 64.726562 C 188.78125 64.730469 189.601562 64.957031 190.328125 65.394531 L 191.152344 65.882812 L 208.453125 76.242188 L 220.195312 83.273438 L 237.496094 93.628906 L 260.496094 107.402344 C 263.660156 109.292969 263.511719 113.9375 260.230469 115.625 " fill-opacity="1" fill-rule="nonzero"/></g><path fill="rgb(20.388794%, 58.81958%, 77.648926%)" d="M 187.640625 160.753906 L 188.011719 109.875 L 223.425781 122.808594 L 223.183594 156.402344 L 187.640625 160.753906 " fill-opacity="1" fill-rule="nonzero"/><g fill="rgb(1.959229%, 11.369324%, 25.099182%)" fill-opacity="1"><g transform="translate(81.85938, 289.671866)"><g><path d="M 30.109375 -30.109375 L 30.109375 -12.640625 C 30.109375 -8.660156 28.875 -5.5 26.40625 -3.15625 C 23.945312 -0.820312 20.609375 0.34375 16.390625 0.34375 C 12.140625 0.34375 8.757812 -0.820312 6.25 -3.15625 C 3.75 -5.5 2.5 -8.660156 2.5 -12.640625 L 2.5 -30.109375 L 10.15625 -30.109375 L 10.15625 -12.640625 C 10.15625 -10.640625 10.734375 -9.039062 11.890625 -7.84375 C 13.054688 -6.65625 14.570312 -6.0625 16.4375 -6.0625 C 18.269531 -6.0625 19.738281 -6.648438 20.84375 -7.828125 C 21.945312 -9.003906 22.5 -10.609375 22.5 -12.640625 L 22.5 -30.109375 Z M 30.109375 -30.109375 "/></g></g></g><g fill="rgb(1.959229%, 11.369324%, 25.099182%)" fill-opacity="1"><g transform="translate(118.811234, 289.671866)"><g><path d="M 17.546875 -23.4375 C 20.816406 -23.4375 23.445312 -22.335938 25.4375 -20.140625 C 27.4375 -17.953125 28.4375 -15.066406 28.4375 -11.484375 C 28.4375 -7.953125 27.457031 -5.109375 25.5 -2.953125 C 23.550781 -0.804688 20.957031 0.265625 17.71875 0.265625 C 14.675781 0.265625 12.3125 -0.851562 10.625 -3.09375 L 10.625 8.34375 L 3.1875 8.34375 L 3.1875 -23.1875 L 10.625 -23.1875 L 10.625 -20.125 C 12.34375 -22.332031 14.648438 -23.4375 17.546875 -23.4375 Z M 15.75 -5.640625 C 17.289062 -5.640625 18.539062 -6.203125 19.5 -7.328125 C 20.46875 -8.460938 20.953125 -9.921875 20.953125 -11.703125 C 20.953125 -13.484375 20.46875 -14.929688 19.5 -16.046875 C 18.539062 -17.160156 17.289062 -17.71875 15.75 -17.71875 C 14.25 -17.71875 13.019531 -17.160156 12.0625 -16.046875 C 11.101562 -14.929688 10.625 -13.484375 10.625 -11.703125 C 10.625 -9.890625 11.097656 -8.425781 12.046875 -7.3125 C 12.992188 -6.195312 14.226562 -5.640625 15.75 -5.640625 Z M 15.75 -5.640625 "/></g></g></g><g fill="rgb(1.959229%, 11.369324%, 25.099182%)" fill-opacity="1"><g transform="translate(152.622879, 289.671866)"><g><path d="M 10.671875 -6.40625 L 23.4375 -6.40625 L 23.4375 0 L 3.015625 0 L 3.015625 -30.109375 L 10.671875 -30.109375 Z M 10.671875 -6.40625 "/></g></g></g><g fill="rgb(1.959229%, 11.369324%, 25.099182%)" fill-opacity="1"><g transform="translate(181.057468, 289.671866)"><g><path d="M 13.125 -23.4375 C 17.132812 -23.4375 20.148438 -22.203125 22.171875 -19.734375 C 24.191406 -17.273438 25.070312 -13.894531 24.8125 -9.59375 L 8.515625 -9.59375 C 8.890625 -8.21875 9.550781 -7.15625 10.5 -6.40625 C 11.445312 -5.664062 12.609375 -5.296875 13.984375 -5.296875 C 16.097656 -5.296875 17.945312 -6.082031 19.53125 -7.65625 L 23.4375 -3.828125 C 20.945312 -1.097656 17.578125 0.265625 13.328125 0.265625 C 9.578125 0.265625 6.585938 -0.804688 4.359375 -2.953125 C 2.140625 -5.109375 1.03125 -7.96875 1.03125 -11.53125 C 1.03125 -15.113281 2.140625 -17.992188 4.359375 -20.171875 C 6.585938 -22.347656 9.507812 -23.4375 13.125 -23.4375 Z M 8.390625 -13.59375 L 17.671875 -13.59375 C 17.671875 -15 17.265625 -16.128906 16.453125 -16.984375 C 15.640625 -17.847656 14.554688 -18.28125 13.203125 -18.28125 C 11.941406 -18.28125 10.878906 -17.859375 10.015625 -17.015625 C 9.160156 -16.171875 8.617188 -15.03125 8.390625 -13.59375 Z M 8.390625 -13.59375 "/></g></g></g><g fill="rgb(1.959229%, 11.369324%, 25.099182%)" fill-opacity="1"><g transform="translate(211.298749, 289.671866)"><g><path d="M 13.375 -23.53125 C 16.5625 -23.53125 19.035156 -22.789062 20.796875 -21.3125 C 22.554688 -19.832031 23.453125 -17.773438 23.484375 -15.140625 L 23.484375 0 L 16.21875 0 L 16.21875 -2.671875 C 14.695312 -0.660156 12.332031 0.34375 9.125 0.34375 C 6.6875 0.34375 4.75 -0.328125 3.3125 -1.671875 C 1.875 -3.023438 1.15625 -4.773438 1.15625 -6.921875 C 1.15625 -9.128906 1.921875 -10.84375 3.453125 -12.0625 C 4.992188 -13.28125 7.195312 -13.90625 10.0625 -13.9375 L 16.171875 -13.9375 L 16.171875 -14.28125 C 16.171875 -15.425781 15.789062 -16.320312 15.03125 -16.96875 C 14.269531 -17.613281 13.144531 -17.9375 11.65625 -17.9375 C 9.5625 -17.9375 7.253906 -17.289062 4.734375 -16 L 2.625 -20.90625 C 6.382812 -22.65625 9.96875 -23.53125 13.375 -23.53125 Z M 11.40625 -4.6875 C 12.570312 -4.6875 13.597656 -4.976562 14.484375 -5.5625 C 15.378906 -6.15625 15.941406 -6.925781 16.171875 -7.875 L 16.171875 -9.9375 L 11.484375 -9.9375 C 9.242188 -9.9375 8.125 -9.101562 8.125 -7.4375 C 8.125 -6.582031 8.410156 -5.910156 8.984375 -5.421875 C 9.554688 -4.929688 10.363281 -4.6875 11.40625 -4.6875 Z M 11.40625 -4.6875 "/></g></g></g><g fill="rgb(1.959229%, 11.369324%, 25.099182%)" fill-opacity="1"><g transform="translate(241.453997, 289.671866)"><g><path d="M 10.40625 -23.1875 L 10.40625 -19.265625 C 12.039062 -22.046875 14.550781 -23.46875 17.9375 -23.53125 L 17.9375 -16.8125 C 15.8125 -17.019531 14.070312 -16.671875 12.71875 -15.765625 C 11.375 -14.859375 10.601562 -13.578125 10.40625 -11.921875 L 10.40625 0 L 2.96875 0 L 2.96875 -23.1875 Z M 10.40625 -23.1875 "/></g></g></g><g fill="rgb(1.959229%, 11.369324%, 25.099182%)" fill-opacity="1"><g transform="translate(264.167391, 289.671866)"><g><path d="M 18.15625 -23.53125 C 20.707031 -23.53125 22.753906 -22.71875 24.296875 -21.09375 C 25.847656 -19.476562 26.625 -17.320312 26.625 -14.625 L 26.625 0 L 19.234375 0 L 19.234375 -12.5625 C 19.234375 -13.90625 18.863281 -14.972656 18.125 -15.765625 C 17.394531 -16.554688 16.398438 -16.953125 15.140625 -16.953125 C 13.816406 -16.953125 12.734375 -16.519531 11.890625 -15.65625 C 11.046875 -14.800781 10.550781 -13.671875 10.40625 -12.265625 L 10.40625 0 L 2.96875 0 L 2.96875 -23.1875 L 10.40625 -23.1875 L 10.40625 -19.40625 C 12.039062 -22.09375 14.625 -23.46875 18.15625 -23.53125 Z M 18.15625 -23.53125 "/></g></g></g></svg>